<?xml version="1.0" encoding="UTF-8"?>
<svg id="Layer_1" data-name="Layer 1" xmlns="http://www.w3.org/2000/svg" xmlns:xlink="http://www.w3.org/1999/xlink" viewBox="0 0 218.02 257.41">
  <defs>
    <style>
      .cls-1, .cls-2, .cls-3 {
        fill: #003d60;
      }

      .cls-2, .cls-4, .cls-3, .cls-5, .cls-6 {
        stroke: #231f20;
        stroke-miterlimit: 10;
        stroke-width: .5px;
      }

      .cls-7 {
        fill: none;
      }

      .cls-8 {
        clip-path: url(#clippath-1);
      }

      .cls-9 {
        clip-path: url(#clippath-3);
      }

      .cls-4 {
        fill: #0061a9;
      }

      .cls-4, .cls-3, .cls-5, .cls-6 {
        fill-rule: evenodd;
      }

      .cls-10 {
        clip-path: url(#clippath-2);
      }

      .cls-5 {
        fill: #ffa914;
      }

      .cls-11 {
        clip-path: url(#clippath);
      }

      .cls-6 {
        fill: #ff6a0c;
      }
    </style>
    <clipPath id="clippath">
      <rect class="cls-7" x="49.01" y=".27" width="120" height="58.02"/>
    </clipPath>
    <clipPath id="clippath-1">
      <rect class="cls-7" x="45.08" y="39.63" width="97.27" height="72"/>
    </clipPath>
    <clipPath id="clippath-2">
      <rect class="cls-7" x="45.08" y="83.63" width="119.93" height="58.65"/>
    </clipPath>
    <clipPath id="clippath-3">
      <rect class="cls-7" x="71.68" y="31.63" width="97.4" height="72"/>
    </clipPath>
  </defs>
  <g id="Logotipo_-_GesN" data-name="Logotipo - GesN">
    <g class="cls-11">
      <path class="cls-3" d="M49.27,34.31L107.32.29l61.3,35.92-.05,21.64-62.23-35.87-38.79,23.17-18.28-10.84Z"/>
    </g>
    <g class="cls-8">
      <path class="cls-5" d="M45.08,40.22l.24,35.98,61.51,35,35.08-19.72v-9.61l-10.19-5.8-25.13,13.68-42.01-23.91v-13.55l-19.51-12.08Z"/>
    </g>
    <g class="cls-10">
      <path class="cls-6" d="M146.61,98.39l17.53,11.09-57.55,32.78-61.27-35.73.11-22.41,61.64,36.21,39.53-21.93Z"/>
    </g>
    <g class="cls-9">
      <path class="cls-4" d="M72.02,52.52l-.02,8.15,11.11,5.92,23.22-13.8,42.49,24.89.05,13.6,19.24,12.35v-37.57s-60.03-33.98-60.03-33.98l-36.05,20.45Z"/>
    </g>
    <g id="Nome">
      <path class="cls-1" d="M5.96,257.24c-1.02,0-1.9-.16-2.65-.46-.74-.3-1.35-.73-1.85-1.29-.5-.55-.87-1.22-1.1-2-.24-.79-.35-1.67-.35-2.63s.13-1.78.38-2.56c.26-.78.65-1.44,1.15-2,.51-.57,1.15-1.01,1.9-1.31.76-.3,1.65-.46,2.65-.46.64,0,1.19.05,1.67.15.48.1.89.24,1.21.42.32.17.55.37.71.6.15.24.23.49.23.77,0,.18-.04.35-.13.5-.08.16-.2.29-.33.4-.14.1-.31.18-.5.23-.2.06-.41.08-.65.08,0-.26-.04-.53-.13-.79-.07-.28-.2-.52-.38-.73-.18-.21-.42-.38-.71-.5-.29-.14-.66-.21-1.08-.21-.74,0-1.36.12-1.88.35-.52.24-.94.59-1.27,1.06-.32.46-.56,1.03-.71,1.71-.14.67-.21,1.43-.21,2.29s.07,1.64.23,2.31c.15.67.4,1.23.73,1.69.34.46.79.81,1.33,1.04.55.24,1.23.35,2.02.35.33,0,.65-.01.96-.04.32-.04.59-.09.83-.17v-2.79c0-.26-.04-.47-.1-.63-.07-.15-.18-.27-.31-.35-.13-.08-.28-.14-.46-.17-.17-.03-.35-.04-.54-.04h-.06v-.73h4.5v.73h-.06c-.17,0-.33.02-.48.04-.14.03-.27.09-.38.19-.1.08-.18.21-.25.38-.06.17-.08.39-.08.65v3.13c-.58.27-1.19.47-1.81.6-.61.13-1.29.19-2.02.19Z"/>
      <path class="cls-1" d="M17.95,256.22h3.33c.28,0,.51-.03.71-.1.19-.08.35-.19.48-.31.14-.14.24-.29.31-.46.07-.18.11-.36.15-.56l.13-.73h.9l-.1,3.02h-9.29v-.73h.21c.19,0,.38-.01.54-.04.18-.03.33-.07.46-.15.14-.08.24-.2.31-.35.08-.15.13-.36.13-.63v-8.5c0-.28-.04-.49-.13-.65-.07-.17-.18-.29-.31-.38-.13-.09-.28-.16-.46-.19-.17-.03-.35-.04-.54-.04h-.21v-.73h8.73l.08,3.02h-.9l-.08-.73c-.03-.19-.08-.38-.15-.54-.06-.18-.15-.33-.27-.46-.13-.14-.28-.24-.46-.31-.18-.08-.41-.13-.67-.13h-2.9v4.63h4.17v.85h-4.17v5.19Z"/>
      <path class="cls-1" d="M31.48,257.24c-.57,0-1.07-.06-1.5-.17-.43-.13-.79-.29-1.08-.5s-.52-.46-.67-.77c-.14-.3-.21-.64-.21-1,0-.34.1-.63.31-.83.22-.22.53-.33.94-.33.01.36.07.71.17,1.04.09.33.23.64.42.9.18.25.42.45.71.6.29.14.64.21,1.04.21.78,0,1.38-.19,1.81-.56.44-.38.67-.91.67-1.6,0-.32-.05-.59-.15-.83-.08-.25-.23-.48-.44-.69s-.49-.4-.83-.58c-.33-.19-.76-.4-1.27-.6-.53-.22-.99-.46-1.4-.71-.41-.25-.74-.53-1-.83-.27-.3-.47-.65-.6-1.02-.13-.39-.19-.82-.19-1.29,0-.5.09-.94.27-1.33.19-.39.46-.71.79-.98.34-.26.75-.46,1.21-.6.47-.14.98-.21,1.52-.21s.98.06,1.38.17c.4.1.74.24,1.02.42.28.18.48.39.63.63.15.24.23.48.23.73,0,.38-.13.66-.38.85-.25.18-.58.27-1,.27,0-.28-.04-.54-.1-.79-.06-.26-.16-.5-.31-.71-.16-.21-.35-.38-.6-.5-.25-.14-.56-.21-.92-.21-.33,0-.64.05-.9.15-.27.1-.49.24-.67.42-.18.17-.32.37-.42.6-.1.24-.15.51-.15.81,0,.35.04.66.13.92.09.27.25.5.46.71.22.21.5.41.83.6.34.18.78.38,1.29.58.5.21.94.43,1.33.67.4.22.74.48,1.02.77.28.28.48.6.63.96.15.35.23.74.23,1.19,0,.56-.1,1.05-.31,1.48-.2.43-.48.8-.85,1.1-.36.29-.81.52-1.33.67-.53.15-1.11.23-1.75.23Z"/>
      <path class="cls-1" d="M45.3,255.09c0,.28.03.5.1.67.08.16.19.28.31.38.13.08.28.14.46.17.18.03.36.04.54.04h.42v.73h-5.4v-.73h.4c.19,0,.38-.01.54-.04.17-.03.31-.07.44-.15.14-.08.24-.2.31-.35.08-.15.13-.36.13-.63v-9.63h-1.67c-.25,0-.47.04-.65.13-.17.07-.31.18-.42.31-.1.13-.18.28-.23.46-.06.17-.1.35-.13.54l-.08.73h-.9l.08-3.02h9.75l.08,3.02h-.9l-.08-.73c-.03-.19-.07-.38-.13-.54-.06-.18-.14-.33-.25-.46-.1-.14-.24-.24-.42-.31-.17-.08-.39-.13-.65-.13h-1.69v9.54Z"/>
      <path class="cls-1" d="M55.76,252.93l-.65,1.83c-.06.13-.1.26-.13.4-.03.14-.04.25-.04.33,0,.31.09.53.27.67.19.13.48.19.88.19h.4v.73h-4.23v-.73h.33c.17,0,.3-.01.42-.04.13-.04.23-.11.33-.21.09-.11.19-.25.27-.42.09-.18.19-.41.29-.69l3.85-10.29h1.35l3.92,10.73c.07.18.14.33.21.46.07.11.15.2.25.27.09.07.2.12.31.15.13.03.28.04.46.04h.23v.73h-4.77v-.73h.4c.69,0,1.04-.28,1.04-.83,0-.09-.02-.19-.04-.29-.03-.09-.06-.21-.1-.35l-.69-1.94h-4.56ZM58.93,249.03c-.18-.51-.35-.99-.5-1.44-.14-.46-.26-.9-.35-1.31-.04.21-.09.41-.15.6-.06.2-.12.4-.19.6-.06.21-.13.43-.21.65-.07.22-.16.47-.25.73l-1.19,3.19h3.92l-1.08-3.02ZM59.85,242.59c.17,0,.3-.03.4-.08.11-.05.19-.13.25-.21.05-.08.09-.18.13-.29.03-.11.05-.22.06-.33h.79c-.03.27-.08.52-.17.77-.07.24-.18.45-.33.65-.14.2-.32.35-.54.46-.21.11-.47.17-.79.17s-.58-.05-.83-.17c-.25-.11-.49-.23-.71-.38-.22-.14-.43-.26-.63-.38-.18-.13-.36-.19-.54-.19s-.32.03-.42.08c-.1.06-.18.13-.25.21-.06.08-.1.18-.13.29-.03.11-.05.22-.06.33h-.79c.03-.26.07-.51.15-.75.08-.25.19-.46.33-.65.15-.19.34-.34.56-.46.22-.13.49-.19.81-.19.3,0,.58.06.83.19.25.11.48.24.69.38.22.14.43.27.63.38.19.11.38.17.56.17Z"/>
      <path class="cls-1" d="M78.87,250.87c0,.96-.12,1.83-.35,2.63-.24.78-.59,1.45-1.06,2-.46.56-1.03.99-1.71,1.29-.67.3-1.44.46-2.31.46s-1.72-.16-2.42-.46c-.68-.3-1.25-.73-1.71-1.29-.45-.55-.78-1.23-1-2.02-.22-.79-.33-1.67-.33-2.63s.11-1.82.33-2.6c.22-.78.55-1.44,1-2,.46-.55,1.03-.98,1.71-1.27.69-.3,1.51-.46,2.44-.46.88,0,1.65.16,2.31.46.67.29,1.23.72,1.69,1.27.47.56.82,1.23,1.06,2.02.23.78.35,1.65.35,2.6ZM69.89,250.87c0,.86.06,1.64.19,2.31.13.67.32,1.24.6,1.71.29.46.66.81,1.1,1.06.44.24.99.35,1.65.35s1.18-.11,1.63-.35c.46-.25.82-.6,1.1-1.06.28-.47.48-1.04.6-1.71.13-.68.19-1.45.19-2.31s-.06-1.63-.19-2.29c-.13-.68-.33-1.25-.6-1.71-.28-.46-.64-.8-1.08-1.04-.45-.25-.99-.38-1.63-.38s-1.21.13-1.67.38c-.45.24-.81.58-1.1,1.04-.28.46-.48,1.03-.6,1.71-.13.67-.19,1.43-.19,2.29Z"/>
      <path class="cls-1" d="M100.99,250.87c0,.95-.12,1.81-.35,2.58-.24.77-.59,1.42-1.06,1.96-.46.53-1.04.94-1.75,1.23s-1.54.44-2.48.44h-5.29v-.73h.21c.19,0,.38-.01.54-.04.18-.03.33-.08.46-.17.14-.09.24-.22.31-.38.08-.17.13-.39.13-.67v-8.5c0-.25-.04-.45-.13-.6-.07-.15-.18-.27-.31-.35-.13-.08-.28-.14-.46-.17-.17-.03-.35-.04-.54-.04h-.21v-.73h5.29c.9,0,1.7.14,2.4.42.69.27,1.28.66,1.77,1.19.48.53.85,1.18,1.1,1.96.25.77.38,1.64.38,2.6ZM94.95,256.2c.68,0,1.28-.11,1.79-.35.53-.23.96-.57,1.29-1.02.34-.46.6-1.01.77-1.67.18-.67.27-1.43.27-2.29,0-1.72-.35-3.03-1.04-3.94-.68-.92-1.7-1.38-3.06-1.38h-1.52v10.65h1.5Z"/>
      <path class="cls-1" d="M114.64,251.03c0,.96-.12,1.83-.35,2.63-.24.78-.59,1.45-1.06,2-.46.56-1.03.99-1.71,1.29-.67.3-1.44.46-2.31.46s-1.72-.16-2.42-.46c-.68-.3-1.25-.73-1.71-1.29-.45-.55-.78-1.23-1-2.02-.22-.79-.33-1.67-.33-2.63s.11-1.82.33-2.6c.22-.78.55-1.44,1-2,.46-.55,1.03-.98,1.71-1.27.69-.3,1.51-.46,2.44-.46.88,0,1.65.16,2.31.46.67.29,1.23.72,1.69,1.27.47.56.82,1.23,1.06,2.02.23.78.35,1.65.35,2.6ZM105.66,251.03c0,.86.06,1.64.19,2.31.13.67.32,1.24.6,1.71.29.46.66.81,1.1,1.06.44.24.99.35,1.65.35s1.18-.11,1.63-.35c.46-.25.82-.6,1.1-1.06.28-.47.48-1.04.6-1.71.13-.68.19-1.45.19-2.31s-.06-1.63-.19-2.29c-.13-.68-.33-1.25-.6-1.71-.28-.46-.64-.8-1.08-1.04-.45-.25-.99-.38-1.63-.38s-1.21.13-1.67.38c-.45.24-.81.58-1.1,1.04-.28.46-.48,1.03-.6,1.71-.13.67-.19,1.43-.19,2.29Z"/>
      <path class="cls-1" d="M134.67,257.07l-6.5-9.98v8c0,.28.03.5.1.67.08.16.19.28.31.38.14.08.29.14.46.17.18.03.36.04.56.04h.23v.73h-4.35v-.73h.21c.19,0,.38-.01.54-.04.18-.03.33-.08.46-.17.14-.09.24-.22.31-.38.08-.17.13-.39.13-.67v-8.5c0-.25-.04-.45-.13-.6-.07-.15-.18-.27-.31-.35-.13-.08-.28-.14-.46-.17-.17-.03-.35-.04-.54-.04h-.21v-.73h3.17l6.21,9.58v-7.69c0-.25-.04-.45-.13-.6-.07-.15-.18-.27-.31-.35-.13-.08-.28-.14-.46-.17-.17-.03-.34-.04-.52-.04h-.23v-.73h4.33v.73h-.21c-.2,0-.39.02-.56.04-.17.03-.32.09-.46.19-.13.08-.22.21-.29.38-.07.16-.1.37-.1.65v10.4h-1.25Z"/>
      <path class="cls-1" d="M144.62,256.22h3.33c.28,0,.51-.03.71-.1.19-.08.35-.19.48-.31.14-.14.24-.29.31-.46.07-.18.11-.36.15-.56l.13-.73h.9l-.1,3.02h-9.29v-.73h.21c.19,0,.38-.01.54-.04.18-.03.33-.07.46-.15.14-.08.24-.2.31-.35.08-.15.13-.36.13-.63v-8.5c0-.28-.04-.49-.13-.65-.07-.17-.18-.29-.31-.38-.13-.09-.28-.16-.46-.19-.17-.03-.35-.04-.54-.04h-.21v-.73h8.73l.08,3.02h-.9l-.08-.73c-.03-.19-.08-.38-.15-.54-.06-.18-.15-.33-.27-.46-.13-.14-.28-.24-.46-.31-.18-.08-.41-.13-.67-.13h-2.9v4.63h4.17v.85h-4.17v5.19Z"/>
      <path class="cls-1" d="M160.82,257.24c-1.02,0-1.9-.16-2.65-.46-.74-.3-1.35-.73-1.85-1.29-.5-.55-.87-1.22-1.1-2-.24-.79-.35-1.67-.35-2.63s.13-1.78.38-2.56c.26-.78.65-1.44,1.15-2,.51-.57,1.15-1.01,1.9-1.31.76-.3,1.65-.46,2.65-.46.64,0,1.19.05,1.67.15.48.1.89.24,1.21.42.32.17.55.37.71.6.15.24.23.49.23.77,0,.18-.04.35-.13.5-.08.16-.2.29-.33.4-.14.1-.31.18-.5.23-.2.06-.41.08-.65.08,0-.26-.04-.53-.13-.79-.07-.28-.2-.52-.38-.73-.18-.21-.42-.38-.71-.5-.29-.14-.66-.21-1.08-.21-.74,0-1.36.12-1.88.35-.52.24-.94.59-1.27,1.06-.32.46-.56,1.03-.71,1.71-.14.67-.21,1.43-.21,2.29s.07,1.64.23,2.31c.15.67.4,1.23.73,1.69.34.46.79.81,1.33,1.04.55.24,1.23.35,2.02.35.33,0,.65-.01.96-.04.32-.04.59-.09.83-.17v-2.79c0-.26-.04-.47-.1-.63-.07-.15-.18-.27-.31-.35-.13-.08-.28-.14-.46-.17-.17-.03-.35-.04-.54-.04h-.06v-.73h4.5v.73h-.06c-.17,0-.33.02-.48.04-.14.03-.27.09-.38.19-.1.08-.18.21-.25.38-.06.17-.08.39-.08.65v3.13c-.58.27-1.19.47-1.81.6-.61.13-1.29.19-2.02.19Z"/>
      <path class="cls-1" d="M180.62,250.87c0,.96-.12,1.83-.35,2.63-.24.78-.59,1.45-1.06,2-.46.56-1.03.99-1.71,1.29-.67.3-1.44.46-2.31.46s-1.72-.16-2.42-.46c-.68-.3-1.25-.73-1.71-1.29-.45-.55-.78-1.23-1-2.02-.22-.79-.33-1.67-.33-2.63s.11-1.82.33-2.6c.22-.78.55-1.44,1-2,.46-.55,1.03-.98,1.71-1.27.69-.3,1.51-.46,2.44-.46.88,0,1.65.16,2.31.46.67.29,1.23.72,1.69,1.27.47.56.82,1.23,1.06,2.02.23.78.35,1.65.35,2.6ZM171.65,250.87c0,.86.06,1.64.19,2.31.13.67.32,1.24.6,1.71.29.46.66.81,1.1,1.06.44.24.99.35,1.65.35s1.18-.11,1.63-.35c.46-.25.82-.6,1.1-1.06.28-.47.48-1.04.6-1.71.13-.68.19-1.45.19-2.31s-.06-1.63-.19-2.29c-.13-.68-.33-1.25-.6-1.71-.28-.46-.64-.8-1.08-1.04-.45-.25-.99-.38-1.63-.38s-1.21.13-1.67.38c-.45.24-.81.58-1.1,1.04-.28.46-.48,1.03-.6,1.71-.13.67-.19,1.43-.19,2.29ZM174.25,243.49c.13-.17.26-.35.4-.56.14-.22.27-.44.4-.67.14-.23.27-.46.4-.69.13-.23.23-.44.31-.63h1.85v.17c-.11.16-.27.35-.48.58-.21.22-.44.46-.69.71s-.52.49-.79.73c-.27.22-.51.42-.73.58h-.67v-.23Z"/>
      <path class="cls-1" d="M190.67,244.53c.59,0,1.11.05,1.54.15.44.1.81.24,1.1.42.29.17.51.37.65.6.15.24.23.49.23.77,0,.18-.04.35-.13.5-.07.16-.18.29-.31.4-.14.1-.3.18-.48.23-.18.06-.39.08-.6.08,0-.26-.04-.53-.1-.79-.07-.28-.19-.52-.35-.73-.16-.21-.36-.38-.63-.5-.25-.14-.56-.21-.94-.21-.66,0-1.21.12-1.67.35-.46.24-.83.59-1.13,1.06-.29.46-.5,1.03-.63,1.71-.13.67-.19,1.43-.19,2.29,0,.78.06,1.49.19,2.13.14.64.35,1.2.65,1.67.3.46.68.81,1.13,1.06.46.25,1.01.38,1.65.38.42,0,.78-.04,1.1-.13.33-.08.63-.19.88-.31.25-.14.46-.3.65-.48.19-.18.36-.36.52-.54.08.06.15.14.21.25.07.1.1.24.1.42,0,.22-.08.45-.23.69-.14.22-.36.43-.67.63-.31.18-.7.33-1.17.46-.46.11-1.02.17-1.67.17-.86,0-1.62-.16-2.27-.46-.66-.3-1.2-.73-1.65-1.29-.45-.55-.78-1.22-1-2-.22-.79-.33-1.67-.33-2.63s.11-1.78.35-2.56c.23-.78.58-1.44,1.04-2,.47-.57,1.05-1.01,1.75-1.31.69-.3,1.49-.46,2.4-.46Z"/>
      <path class="cls-1" d="M197.94,257.07v-.73h.21c.19,0,.38-.01.54-.04.18-.03.33-.08.46-.17.14-.09.24-.22.31-.38.08-.17.13-.39.13-.67v-8.42c0-.28-.04-.49-.13-.65-.07-.17-.18-.29-.31-.38-.13-.09-.28-.16-.46-.19-.17-.03-.35-.04-.54-.04h-.21v-.73h5.04v.73h-.23c-.2,0-.39.02-.56.04-.17.03-.31.09-.44.19-.13.08-.23.21-.31.38-.07.16-.1.37-.1.65v8.42c0,.28.03.5.1.67.08.16.19.28.31.38.13.08.27.14.44.17.18.03.36.04.56.04h.23v.73h-5.04Z"/>
      <path class="cls-1" d="M218.02,250.87c0,.96-.12,1.83-.35,2.63-.24.78-.59,1.45-1.06,2-.46.56-1.03.99-1.71,1.29-.67.3-1.44.46-2.31.46s-1.72-.16-2.42-.46c-.68-.3-1.25-.73-1.71-1.29-.45-.55-.78-1.23-1-2.02-.22-.79-.33-1.67-.33-2.63s.11-1.82.33-2.6c.22-.78.55-1.44,1-2,.46-.55,1.03-.98,1.71-1.27.69-.3,1.51-.46,2.44-.46.88,0,1.65.16,2.31.46.67.29,1.23.72,1.69,1.27.47.56.82,1.23,1.06,2.02.23.78.35,1.65.35,2.6ZM209.04,250.87c0,.86.06,1.64.19,2.31.13.67.32,1.24.6,1.71.29.46.66.81,1.1,1.06.44.24.99.35,1.65.35s1.18-.11,1.63-.35c.46-.25.82-.6,1.1-1.06.28-.47.48-1.04.6-1.71.13-.68.19-1.45.19-2.31s-.06-1.63-.19-2.29c-.13-.68-.33-1.25-.6-1.71-.28-.46-.64-.8-1.08-1.04-.45-.25-.99-.38-1.63-.38s-1.21.13-1.67.38c-.45.24-.81.58-1.1,1.04-.28.46-.48,1.03-.6,1.71-.13.67-.19,1.43-.19,2.29Z"/>
    </g>
    <g id="Abreviação">
      <path class="cls-2" d="M49.72,214.84c1.68,0,3.17-.16,4.46-.48s2.52-.75,3.67-1.29v-8.91h-5.18c-.77,0-1.37-.23-1.8-.68s-.65-1.03-.65-1.73v-7.5h18.65v24.79c-1.34,1.1-2.74,2.05-4.19,2.84-1.45.79-3,1.44-4.64,1.96-1.64.51-3.4.89-5.26,1.13-1.86.24-3.86.36-5.99.36-3.84,0-7.39-.76-10.66-2.28-3.26-1.52-6.09-3.61-8.48-6.29-2.39-2.67-4.26-5.84-5.62-9.51-1.36-3.67-2.03-7.65-2.03-11.95s.65-8.4,1.94-12.07c1.3-3.67,3.15-6.83,5.56-9.49,2.41-2.66,5.33-4.73,8.75-6.21,3.42-1.48,7.24-2.22,11.47-2.22,2.18,0,4.24.2,6.16.6,1.92.4,3.69.95,5.31,1.65s3.1,1.53,4.45,2.5c1.34.97,2.54,2.02,3.6,3.15l-3.53,6.01c-.34.57-.74,1.01-1.21,1.33-.47.32-.98.48-1.53.48-.72,0-1.46-.27-2.23-.81-.96-.65-1.87-1.2-2.72-1.67-.85-.47-1.72-.85-2.61-1.15-.89-.3-1.82-.51-2.81-.65-.98-.13-2.09-.2-3.31-.2-2.28,0-4.33.45-6.16,1.35-1.82.9-3.38,2.17-4.66,3.81-1.28,1.64-2.27,3.61-2.97,5.91-.7,2.3-1.04,4.86-1.04,7.68,0,3.12.38,5.89,1.15,8.3s1.83,4.46,3.19,6.13c1.36,1.67,2.96,2.94,4.82,3.81,1.86.87,3.89,1.31,6.1,1.31Z"/>
      <path class="cls-2" d="M92.27,182.23c2.47,0,4.73.43,6.79,1.29,2.05.86,3.82,2.11,5.29,3.75,1.48,1.64,2.63,3.65,3.46,6.03s1.24,5.07,1.24,8.08c0,.94-.04,1.71-.11,2.3-.07.59-.2,1.06-.4,1.41-.19.35-.45.59-.77.73-.32.13-.74.2-1.24.2h-21.53c.36,3.49,1.31,6.03,2.84,7.6,1.54,1.57,3.52,2.36,5.94,2.36,1.3,0,2.41-.17,3.35-.52.94-.35,1.77-.74,2.5-1.17.73-.43,1.4-.82,2.02-1.17.61-.35,1.25-.52,1.93-.52.89,0,1.56.36,2.02,1.09l3.24,4.47c-1.15,1.48-2.39,2.68-3.73,3.61s-2.7,1.65-4.1,2.18c-1.4.52-2.81.89-4.21,1.09-1.4.2-2.74.3-4.01.3-2.62,0-5.07-.48-7.36-1.43s-4.3-2.37-6.01-4.25c-1.72-1.88-3.07-4.22-4.07-7.01-1-2.8-1.49-6.05-1.49-9.76,0-2.8.43-5.44,1.28-7.94.85-2.5,2.08-4.69,3.67-6.57s3.53-3.37,5.8-4.47,4.83-1.65,7.69-1.65ZM92.49,190.85c-2.14,0-3.8.68-5,2.04-1.2,1.36-1.99,3.31-2.38,5.86h13.93c0-.99-.11-1.96-.34-2.9-.23-.94-.6-1.78-1.12-2.52-.52-.74-1.19-1.34-2.03-1.79-.84-.46-1.86-.69-3.06-.69Z"/>
      <path class="cls-2" d="M138.28,192.02c-.29.51-.59.87-.92,1.09-.32.22-.74.32-1.24.32s-1.06-.13-1.58-.38c-.53-.25-1.1-.53-1.71-.83-.61-.3-1.3-.57-2.07-.83-.77-.26-1.64-.38-2.63-.38-1.42,0-2.5.3-3.26.91s-1.13,1.44-1.13,2.52c0,.78.25,1.42.74,1.93.49.51,1.15.96,1.96,1.35.82.39,1.74.76,2.77,1.11,1.03.35,2.09.74,3.17,1.17,1.08.43,2.14.93,3.17,1.51,1.03.58,1.96,1.29,2.77,2.14.82.85,1.47,1.88,1.96,3.08.49,1.21.74,2.66.74,4.35,0,2.07-.34,3.98-1.01,5.72-.67,1.75-1.67,3.25-3.01,4.51-1.33,1.26-2.98,2.25-4.93,2.94-1.96.7-4.21,1.05-6.75,1.05-1.27,0-2.54-.13-3.82-.4-1.27-.27-2.5-.63-3.69-1.09-1.19-.46-2.29-1-3.29-1.63-1.01-.63-1.87-1.31-2.59-2.04l2.59-4.6c.31-.54.68-.96,1.12-1.27.43-.31,1-.46,1.69-.46.65,0,1.23.16,1.75.48.52.32,1.07.67,1.67,1.05.6.38,1.3.73,2.11,1.05.8.32,1.82.48,3.04.48.86,0,1.6-.1,2.2-.3.6-.2,1.08-.48,1.44-.83.36-.35.62-.74.79-1.17.17-.43.25-.87.25-1.33,0-.83-.25-1.52-.76-2.06-.5-.54-1.17-1-1.98-1.39-.82-.39-1.75-.75-2.79-1.09-1.04-.34-2.11-.72-3.19-1.15s-2.14-.95-3.19-1.55-1.97-1.37-2.79-2.3-1.48-2.06-1.98-3.41c-.5-1.34-.76-2.97-.76-4.88,0-1.77.31-3.46.92-5.06.61-1.6,1.53-3,2.75-4.21,1.22-1.21,2.76-2.17,4.61-2.88,1.85-.71,4.01-1.07,6.48-1.07,1.34,0,2.65.13,3.91.4,1.26.27,2.44.65,3.55,1.13,1.1.48,2.11,1.06,3.02,1.71s1.72,1.38,2.41,2.16l-2.52,4.39Z"/>
      <path class="cls-2" d="M154.87,166.02c.36.05.68.16.97.3.29.15.56.36.83.63.26.27.56.63.9,1.09l24.91,35.27c-.1-1.13-.17-2.22-.22-3.28-.05-1.06-.07-2.06-.07-3v-31.08h10.73v58.74h-6.34c-.94,0-1.73-.16-2.38-.48-.65-.32-1.27-.91-1.87-1.77l-24.73-34.99c.07,1.02.13,2.02.18,3s.07,1.9.07,2.76v31.48h-10.73v-58.74h6.41c.53,0,.97.03,1.33.08Z"/>
    </g>
  </g>
</svg>